<svg width="18" height="18" viewBox="0 0 18 18" fill="none" xmlns="http://www.w3.org/2000/svg">
<path fill-rule="evenodd" clip-rule="evenodd" d="M15.2153 3.93223C15.5071 3.93223 15.75 4.17447 15.75 4.48272V4.76772C15.75 5.06846 15.5071 5.31821 15.2153 5.31821H2.78539C2.49289 5.31821 2.25 5.06846 2.25 4.76772V4.48272C2.25 4.17447 2.49289 3.93223 2.78539 3.93223H4.97217C5.41639 3.93223 5.80298 3.61648 5.90291 3.17098L6.01743 2.65949C6.1954 1.96275 6.78112 1.5 7.45145 1.5H10.5485C11.2116 1.5 11.8039 1.96275 11.9753 2.62274L12.0978 3.17023C12.197 3.61648 12.5836 3.93223 13.0286 3.93223H15.2153ZM14.1044 14.3505C14.3327 12.2228 14.7324 7.16781 14.7324 7.11681C14.747 6.96231 14.6966 6.81606 14.5967 6.69832C14.4895 6.58807 14.3538 6.52282 14.2043 6.52282H3.80138C3.65112 6.52282 3.50816 6.58807 3.40896 6.69832C3.3083 6.81606 3.2587 6.96231 3.26599 7.11681C3.26733 7.12618 3.28168 7.30424 3.30566 7.60193C3.41218 8.92437 3.70887 12.6076 3.90058 14.3505C4.03626 15.6345 4.87873 16.4415 6.09904 16.4707C7.04071 16.4925 8.01083 16.5 9.00284 16.5C9.93722 16.5 10.8862 16.4925 11.857 16.4707C13.1197 16.449 13.9614 15.6562 14.1044 14.3505Z" fill="white"/>
</svg>
