<svg width="18" height="18" viewBox="0 0 18 18" fill="none" xmlns="http://www.w3.org/2000/svg">
<path fill-rule="evenodd" clip-rule="evenodd" d="M7.0323 15.0209L13.6221 6.49908C13.9802 6.03953 14.1076 5.50822 13.9882 4.96724C13.8847 4.47544 13.5823 4.00783 13.1286 3.65309L12.0224 2.7743C11.0594 2.00838 9.86559 2.089 9.18114 2.96779L8.44099 3.92801C8.34548 4.04814 8.36936 4.22551 8.48874 4.32226C8.48874 4.32226 10.359 5.82185 10.3988 5.85409C10.5262 5.97503 10.6217 6.13628 10.6455 6.32977C10.6853 6.7087 10.4227 7.06344 10.0327 7.11181C9.84967 7.136 9.67458 7.07956 9.54724 6.97475L7.58145 5.41067C7.48594 5.33891 7.34269 5.35423 7.2631 5.45098L2.59135 11.4977C2.28892 11.8766 2.18546 12.3684 2.28892 12.8441L2.88582 15.4321C2.91766 15.5692 3.03704 15.6659 3.1803 15.6659L5.80666 15.6337C6.28418 15.6256 6.72987 15.4079 7.0323 15.0209ZM10.7098 14.215H14.9923C15.4101 14.215 15.75 14.5592 15.75 14.9825C15.75 15.4066 15.4101 15.75 14.9923 15.75H10.7098C10.2919 15.75 9.95208 15.4066 9.95208 14.9825C9.95208 14.5592 10.2919 14.215 10.7098 14.215Z" fill="white"/>
</svg>
