<svg width="19" height="19" viewBox="0 0 19 19" fill="none" xmlns="http://www.w3.org/2000/svg">
<path d="M17.7581 3.85081L14.8198 0.912525C14.2374 0.329618 13.4476 0.00145559 12.6237 0H6.04694C5.22296 0.00145559 4.43319 0.329618 3.85081 0.912525L0.912525 3.85081C0.329618 4.43319 0.00145559 5.22296 0 6.04694V15.5584C0 15.9671 0.0804981 16.3718 0.236898 16.7494C0.393299 17.127 0.622539 17.4701 0.911529 17.7591C1.20052 18.048 1.5436 18.2773 1.92118 18.4337C2.29877 18.5901 2.70346 18.6706 3.11215 18.6706H15.5584C15.9671 18.6706 16.3718 18.5901 16.7494 18.4337C17.127 18.2773 17.4701 18.048 17.7591 17.7591C18.048 17.4701 18.2773 17.127 18.4337 16.7494C18.5901 16.3718 18.6706 15.9671 18.6706 15.5584V6.04694C18.6691 5.22296 18.341 4.43319 17.7581 3.85081ZM9.33529 13.4848C8.23477 13.4848 7.17932 13.0477 6.40113 12.2695C5.62294 11.4913 5.18576 10.4358 5.18576 9.33529C5.18576 9.06016 5.29505 8.7963 5.4896 8.60175C5.68415 8.4072 5.94801 8.29791 6.22314 8.29791C6.49827 8.29791 6.76213 8.4072 6.95668 8.60175C7.15123 8.7963 7.26052 9.06016 7.26052 9.33529C7.26052 9.60776 7.31419 9.87755 7.41846 10.1293C7.52272 10.381 7.67555 10.6097 7.86821 10.8024C8.06087 10.995 8.28959 11.1479 8.54131 11.2521C8.79304 11.3564 9.06283 11.4101 9.33529 11.4101C9.60776 11.4101 9.87755 11.3564 10.1293 11.2521C10.381 11.1479 10.6097 10.995 10.8024 10.8024C10.995 10.6097 11.1479 10.381 11.2521 10.1293C11.3564 9.87755 11.4101 9.60776 11.4101 9.33529C11.4101 9.06016 11.5194 8.7963 11.7139 8.60175C11.9085 8.4072 12.1723 8.29791 12.4474 8.29791C12.7226 8.29791 12.9864 8.4072 13.181 8.60175C13.3755 8.7963 13.4848 9.06016 13.4848 9.33529C13.4848 10.4358 13.0477 11.4913 12.2695 12.2695C11.4913 13.0477 10.4358 13.4848 9.33529 13.4848ZM3.53691 4.14954L5.31062 2.37583C5.50929 2.18619 5.77231 2.07865 6.04694 2.07477H12.6237C12.8983 2.07865 13.1613 2.18619 13.36 2.37583L15.1337 4.14954H3.53691Z" fill="#FF0A38"/>
</svg>
